<svg id="Layer_1" data-name="Layer 1" xmlns="http://www.w3.org/2000/svg" viewBox="0 0 929.36 929.36"><defs><style>.cls-1{fill:#ee353a;}.cls-2,.cls-3{fill:#fff;}.cls-3{font-size:89px;font-family:ArialRoundedMTBold, Arial Rounded MT Bold;}</style></defs><rect class="cls-1" width="929.36" height="929.36"/><path class="cls-1" d="M1657.31,458.19h0c0-6.35.21-12.71-.08-19a48.73,48.73,0,0,0-1.84-11.73c-4.17-13.66-12.4-24.51-23.82-33A61.48,61.48,0,0,0,1587.68,382c-18.42,1.79-33.51,10.19-45.07,24.64-8.34,10.4-13.07,22.12-12.71,35.76.31,11.44,0,22.9.11,34.36a46.76,46.76,0,0,0,1,9.06,56.41,56.41,0,0,0,15,27.49c15.31,16,34.09,22.92,56,20.28,19-2.28,34-11.84,45-27.33,6.8-9.48,10.74-20,10.35-31.85C1657.16,469,1657.31,463.61,1657.31,458.19Zm21.87-45.83a20.91,20.91,0,0,0-.61-2.34c-1.07-2.58-2-5.23-3.32-7.69a89.4,89.4,0,0,0-37.48-37.9c-22.53-12.11-46.15-14.47-70.63-7.33a89.87,89.87,0,0,0-39.75,23.78,81.53,81.53,0,0,0-18.65,28.95,23.4,23.4,0,0,0-.6,2.48c2.26,0,4.23-.07,6.19,0a2.22,2.22,0,0,0,2.44-1.49,79.09,79.09,0,0,1,15.78-22.5c20.09-20.25,44.51-28.62,72.66-25.08,22.56,2.84,40.89,13.88,55,31.62,3.85,4.82,6.71,10.42,10.08,15.64.45.7,1.14,1.68,1.8,1.75C1674.32,412.5,1676.56,412.36,1679.18,412.36Zm-2.79,17.28v56.6c9.43-.25,17.58-8.23,17.77-17.42.15-7.09.09-14.18.07-21.27,0-6.11-2.8-10.85-7.51-14.53A14.75,14.75,0,0,0,1676.39,429.64Zm-165.6,56.61v-56.7c-9.58.16-17.61,8-17.81,17.34-.12,5.41-.08,10.82,0,16.24a57.05,57.05,0,0,0,.43,8.17C1494.69,479.5,1502.6,486.29,1510.79,486.25Z" transform="translate(-1284.19 10.34)"/><path class="cls-2" d="M1657.31,458.19c0,5.42-.15,10.84,0,16.25.39,11.89-3.55,22.37-10.35,31.85-11.1,15.49-26,25.05-45,27.33-21.94,2.64-40.72-4.25-56-20.28a56.41,56.41,0,0,1-15-27.49,46.76,46.76,0,0,1-1-9.06c-.11-11.46.2-22.92-.11-34.36-.36-13.64,4.37-25.36,12.71-35.76,11.56-14.45,26.65-22.85,45.07-24.64a61.48,61.48,0,0,1,43.87,12.37c11.42,8.51,19.65,19.36,23.82,33a48.73,48.73,0,0,1,1.84,11.73c.29,6.33.08,12.69.08,19ZM1592.75,507c7.25-.1,13.41-2,18.65-6.31,3.38-2.8,6.33-6,7.56-10.4a6.47,6.47,0,0,0-2.68-7.18c-2.24-1.4-4.31-1.11-6.78,1-.94.81-1.81,1.7-2.72,2.55a19.36,19.36,0,0,1-25.3,1.1c-1.47-1.15-2.75-2.53-4.14-3.76-1.62-1.44-3.38-2.36-5.61-1.43a6,6,0,0,0-3.89,5.25,10.13,10.13,0,0,0,2.23,7C1575.7,502.78,1583.57,506.58,1592.75,507Zm-47-54.73a15.53,15.53,0,0,0,14.78,15.91c8.7.32,16.2-6.43,16.49-14.84.3-8.85-6.37-16.28-14.92-16.61C1553.26,436.34,1546.12,443.13,1545.79,452.22Zm79.3,15.92a16,16,0,0,0,16.14-15.47,16.17,16.17,0,0,0-15.5-16c-8.52-.16-15.68,6.94-15.85,15.73A15.69,15.69,0,0,0,1625.09,468.14Z" transform="translate(-1284.19 10.34)"/><path class="cls-2" d="M1679.18,412.36c-2.62,0-4.86.14-7.07-.08-.66-.07-1.35-1-1.8-1.75-3.37-5.22-6.23-10.82-10.08-15.64-14.13-17.74-32.46-28.78-55-31.62-28.15-3.54-52.57,4.83-72.66,25.08a79.09,79.09,0,0,0-15.78,22.5,2.22,2.22,0,0,1-2.44,1.49c-2-.1-3.93,0-6.19,0a23.4,23.4,0,0,1,.6-2.48,81.53,81.53,0,0,1,18.65-28.95,89.87,89.87,0,0,1,39.75-23.78c24.48-7.14,48.1-4.78,70.63,7.33a89.4,89.4,0,0,1,37.48,37.9c1.29,2.46,2.25,5.11,3.32,7.69A20.91,20.91,0,0,1,1679.18,412.36Z" transform="translate(-1284.19 10.34)"/><path class="cls-2" d="M1676.39,429.64a14.75,14.75,0,0,1,10.33,3.38c4.71,3.68,7.49,8.42,7.51,14.53,0,7.09.08,14.18-.07,21.27-.19,9.19-8.34,17.17-17.77,17.42Z" transform="translate(-1284.19 10.34)"/><path class="cls-2" d="M1510.79,486.25c-8.19,0-16.1-6.75-17.4-14.95a57.05,57.05,0,0,1-.43-8.17c-.06-5.42-.1-10.83,0-16.24.2-9.33,8.23-17.18,17.81-17.34Z" transform="translate(-1284.19 10.34)"/><text class="cls-3" transform="translate(439.26 497.5)">MusiX</text></svg>