<svg id="Layer_1" data-name="Layer 1" xmlns="http://www.w3.org/2000/svg" viewBox="0 0 2551.18 4535.43">
    <rect fill="#ee353a" width="2551.18" height="4535.43"/>
    <path fill="#ee353a" d="M2688.71,433h-.07c0-21.58.74-43.2-.27-64.74-.62-13.38-2.36-27.1-6.25-39.86-14.17-46.45-42.16-83.35-81-112.25-44.37-33-94.34-47.37-149.13-42.06-62.63,6.07-113.91,34.65-153.24,83.75-28.34,35.38-44.41,75.22-43.18,121.58,1,38.91,0,77.87.35,116.8a156.07,156.07,0,0,0,3.26,30.8c7.67,36.09,25.49,66.94,50.81,93.47,52,54.49,115.89,77.93,190.49,69,64.58-7.77,115.39-40.27,153.14-92.92,23.11-32.24,36.51-67.87,35.17-108.3C2688.21,469.82,2688.71,451.39,2688.71,433Zm74.37-155.79c-.92-3.59-1.22-5.89-2.08-8-3.65-8.77-6.88-17.78-11.3-26.16-29.41-55.8-71.76-98.94-127.4-128.84C2545.69,73.05,2465.41,65,2382.19,89.3c-51.87,15.13-97.23,42-135.14,80.84-27.81,28.49-49.59,60.91-63.41,98.42-.84,2.27-1.15,4.73-2,8.46,7.67,0,14.38-.25,21,.09,4.21.22,6.51-1.24,8.28-5.07a268.13,268.13,0,0,1,53.64-76.48c68.32-68.85,151.32-97.31,247-85.27,76.69,9.64,139,47.2,187.07,107.48,13.07,16.4,22.81,35.45,34.24,53.18,1.55,2.4,3.91,5.73,6.15,5.95C2746.56,277.66,2754.18,277.19,2763.08,277.19Zm-9.51,58.75v192.4c32.09-.84,59.8-28,60.44-59.22.5-24.09.3-48.2.23-72.31-.07-20.77-9.52-36.89-25.55-49.39C2778.6,339.55,2767.22,335.05,2753.57,335.94Zm-563,192.42V335.61c-32.58.55-59.87,27.23-60.55,58.95-.39,18.39-.27,36.8-.08,55.2.1,9.28,0,18.67,1.48,27.78C2135.89,505.43,2162.76,528.52,2190.61,528.36Z" transform="translate(-1682.84 1771.99)"/>
    <path fill="#fff" d="M2688.71,433c0,18.41-.5,36.84.1,55.23,1.34,40.43-12.06,76.06-35.17,108.3-37.75,52.65-88.56,85.15-153.14,92.92-74.6,9-138.46-14.47-190.49-69-25.32-26.53-43.14-57.38-50.81-93.47a156.07,156.07,0,0,1-3.26-30.8c-.37-38.93.68-77.89-.35-116.8-1.23-46.36,14.84-86.2,43.18-121.58,39.33-49.1,90.61-77.68,153.24-83.75,54.79-5.31,104.76,9,149.13,42.06,38.82,28.9,66.81,65.8,81,112.25,3.89,12.76,5.63,26.48,6.25,39.86,1,21.54.27,43.16.27,64.74ZM2469.25,598.75c24.64-.34,45.58-6.73,63.38-21.46,11.5-9.52,21.54-20.43,25.71-35.36,2.64-9.45-1.28-19.54-9.1-24.41-7.63-4.75-14.64-3.75-23,3.48-3.2,2.75-6.17,5.79-9.27,8.66-24.24,22.42-60,24.05-86,3.74-5-3.89-9.34-8.58-14.08-12.79-5.49-4.88-11.49-8-19.06-4.86-8,3.32-12.35,9.34-13.23,17.86-.91,8.94,2.63,16.61,7.56,23.65C2411.28,584.55,2438.05,597.51,2469.25,598.75Zm-159.65-186c-1,28.36,21.92,53.05,50.23,54.08,29.58,1.08,55.1-21.88,56.08-50.44,1-30.09-21.67-55.36-50.74-56.48C2335,358.68,2310.71,381.79,2309.6,412.7Zm269.58,54.12c29.52.37,54.59-23.65,54.88-52.59.29-28.62-24.17-53.85-52.68-54.36-29-.51-53.32,23.63-53.91,53.5C2526.91,441.71,2550.86,466.46,2579.18,466.82Z" transform="translate(-1682.84 1771.99)"/>
    <path fill="#fff" d="M2763.08,277.19c-8.9,0-16.52.47-24-.29-2.24-.22-4.6-3.55-6.15-5.95-11.43-17.73-21.17-36.78-34.24-53.18-48-60.28-110.38-97.84-187.07-107.48-95.69-12-178.69,16.42-247,85.27A268.13,268.13,0,0,0,2210.94,272c-1.77,3.83-4.07,5.29-8.28,5.07-6.67-.34-13.38-.09-21-.09.88-3.73,1.19-6.19,2-8.46,13.82-37.51,35.6-69.93,63.41-98.42,37.91-38.85,83.27-65.71,135.14-80.84,83.22-24.27,163.5-16.25,240.11,24.93,55.64,29.9,98,73,127.4,128.84,4.42,8.38,7.65,17.39,11.3,26.16C2761.86,271.3,2762.16,273.6,2763.08,277.19Z" transform="translate(-1682.84 1771.99)"/>
    <path fill="#fff" d="M2753.57,335.94c13.65-.89,25,3.61,35.12,11.48,16,12.5,25.48,28.62,25.55,49.39.07,24.11.27,48.22-.23,72.31-.64,31.26-28.35,58.38-60.44,59.22Z" transform="translate(-1682.84 1771.99)"/>
    <path fill="#fff" d="M2190.61,528.36c-27.85.16-54.72-22.93-59.15-50.82-1.45-9.11-1.38-18.5-1.48-27.78-.19-18.4-.31-36.81.08-55.2.68-31.72,28-58.4,60.55-58.95Z" transform="translate(-1682.84 1771.99)"/>
<!--    <text fill="#fff" font-size="140.57px" font-family="ArialRoundedMTBold, Arial Rounded MT Bold" transform="translate(1230.75 2303.47)">MusiX</text>-->
</svg>
